# xmcd
#
# Track frame offsets:
#	150
#	15405
#	30038
#	47913
#	63780
#	82758
#	98105
#	115425
#	128952
#	146208
#	161040
#	174893
#	192940
#	209675
#
# Disc length: 3035 seconds
#
# Revision: 1
# Processed by: cddbd v1.5.2PL0 Copyright (c) Steve Scherf et al.
# Submitted via: audiograbber 1.83.01
#
DISCID=b50bd90e
DTITLE=Glennis Grace - Glennis
DYEAR=2008
DGENRE=Pop
TTITLE0=Hoe
TTITLE1=Zeg me nee
TTITLE2=Als je slaapt
TTITLE3=Ik laat me gaan
TTITLE4=Stille tranen
TTITLE5=Jij weet
TTITLE6=Verleden tijd
TTITLE7=Dansen met het leven
TTITLE8=Engel zonder vleugels
TTITLE9=Niets hout mij tegen
TTITLE10=Ik kan het niet alleen
TTITLE11=Kom met me mee
TTITLE12=Pittstop
TTITLE13=Als je slaapt [Akoustische Versie]
EXTD=
EXTT0=
EXTT1=
EXTT2=
EXTT3=
EXTT4=
EXTT5=
EXTT6=
EXTT7=
EXTT8=
EXTT9=
EXTT10=
EXTT11=
EXTT12=
EXTT13=
PLAYORDER=
